<svg xmlns="http://www.w3.org/2000/svg" width="40" height="25" viewBox="0 0 40 25">
  <rect width="40" height="25" rx="4" fill="#1434CB"/>
  <path d="M15.23 7.5h2.18l-1.37 10h-2.18l1.37-10zm5.68 0l-2.02 10h-2.07l2.02-10h2.07zm5.53 0c.45 0 .84.05 1.16.16.32.11.58.26.78.46.2.2.34.43.42.7.08.27.09.57.03.9l-.75 4.5c-.06.36-.18.68-.36.96-.18.28-.42.52-.72.72-.3.2-.65.35-1.05.46-.4.11-.84.16-1.32.16h-3.27l1.37-10h2.71zm-1.04 1.73h-.68l-.87 6.54h.68c.27 0 .51-.05.72-.16.21-.11.38-.25.51-.42.13-.17.22-.36.27-.57.05-.21.06-.42.03-.63l-.51-3.84c-.03-.21-.1-.39-.21-.54-.11-.15-.28-.22-.51-.22-.07 0-.14.01-.21.03l-.22 1.81z" fill="white"/>
  <text x="10" y="15" font-family="Arial, sans-serif" font-size="8" font-weight="bold" fill="white">VISA</text>
</svg>
